<mxfile host="Electron" agent="Mozilla/5.0 (Windows NT 10.0; Win64; x64) AppleWebKit/537.36 (KHTML, like Gecko) draw.io/26.1.1 Chrome/132.0.6834.210 Electron/34.3.3 Safari/537.36" version="26.1.1">
  <diagram name="Страница — 1" id="_RMS8VTq_l6xFwVPi96l">
    <mxGraphModel dx="2538" dy="2340" grid="1" gridSize="10" guides="1" tooltips="1" connect="1" arrows="1" fold="1" page="1" pageScale="1" pageWidth="827" pageHeight="1169" math="0" shadow="0">
      <root>
        <mxCell id="0" />
        <mxCell id="1" parent="0" />
        <mxCell id="h30-m_ZWvxQn7n2_iYUi-5" style="edgeStyle=orthogonalEdgeStyle;rounded=0;orthogonalLoop=1;jettySize=auto;html=1;endArrow=none;startFill=0;" edge="1" parent="1" source="XTsITJuGgq2ORjFpMyS3-1" target="XTsITJuGgq2ORjFpMyS3-27">
          <mxGeometry relative="1" as="geometry">
            <Array as="points">
              <mxPoint x="420" y="425" />
            </Array>
          </mxGeometry>
        </mxCell>
        <mxCell id="h30-m_ZWvxQn7n2_iYUi-6" style="edgeStyle=orthogonalEdgeStyle;rounded=0;orthogonalLoop=1;jettySize=auto;html=1;endArrow=none;startFill=0;" edge="1" parent="1" source="XTsITJuGgq2ORjFpMyS3-1" target="XTsITJuGgq2ORjFpMyS3-9">
          <mxGeometry relative="1" as="geometry">
            <Array as="points">
              <mxPoint x="420" y="495" />
            </Array>
          </mxGeometry>
        </mxCell>
        <mxCell id="h30-m_ZWvxQn7n2_iYUi-7" style="edgeStyle=orthogonalEdgeStyle;rounded=0;orthogonalLoop=1;jettySize=auto;html=1;endArrow=none;startFill=0;" edge="1" parent="1" source="XTsITJuGgq2ORjFpMyS3-1" target="XTsITJuGgq2ORjFpMyS3-11">
          <mxGeometry relative="1" as="geometry">
            <Array as="points">
              <mxPoint x="420" y="565" />
            </Array>
          </mxGeometry>
        </mxCell>
        <mxCell id="XTsITJuGgq2ORjFpMyS3-1" value="Пользователь" style="rounded=0;whiteSpace=wrap;html=1;" parent="1" vertex="1">
          <mxGeometry x="360" y="300" width="120" height="60" as="geometry" />
        </mxCell>
        <mxCell id="h30-m_ZWvxQn7n2_iYUi-1" style="edgeStyle=orthogonalEdgeStyle;rounded=0;orthogonalLoop=1;jettySize=auto;html=1;entryX=0;entryY=0.5;entryDx=0;entryDy=0;endArrow=none;startFill=0;" edge="1" parent="1" source="XTsITJuGgq2ORjFpMyS3-8" target="mqxe7t2kT96MH7PXwpXo-11">
          <mxGeometry relative="1" as="geometry">
            <Array as="points">
              <mxPoint x="623.5" y="175" />
            </Array>
          </mxGeometry>
        </mxCell>
        <mxCell id="h30-m_ZWvxQn7n2_iYUi-2" style="edgeStyle=orthogonalEdgeStyle;rounded=0;orthogonalLoop=1;jettySize=auto;html=1;entryX=0;entryY=0.5;entryDx=0;entryDy=0;endArrow=none;startFill=0;" edge="1" parent="1" target="mqxe7t2kT96MH7PXwpXo-9">
          <mxGeometry relative="1" as="geometry">
            <mxPoint x="623.5" y="70" as="sourcePoint" />
            <Array as="points">
              <mxPoint x="623.5" y="105" />
            </Array>
          </mxGeometry>
        </mxCell>
        <mxCell id="h30-m_ZWvxQn7n2_iYUi-3" style="edgeStyle=orthogonalEdgeStyle;rounded=0;orthogonalLoop=1;jettySize=auto;html=1;entryX=0;entryY=0.5;entryDx=0;entryDy=0;endArrow=none;startFill=0;" edge="1" parent="1" source="XTsITJuGgq2ORjFpMyS3-8" target="XTsITJuGgq2ORjFpMyS3-50">
          <mxGeometry relative="1" as="geometry">
            <Array as="points">
              <mxPoint x="623.5" y="245" />
            </Array>
          </mxGeometry>
        </mxCell>
        <mxCell id="h30-m_ZWvxQn7n2_iYUi-4" style="edgeStyle=orthogonalEdgeStyle;rounded=0;orthogonalLoop=1;jettySize=auto;html=1;endArrow=none;startFill=0;" edge="1" parent="1" source="XTsITJuGgq2ORjFpMyS3-8" target="XTsITJuGgq2ORjFpMyS3-49">
          <mxGeometry relative="1" as="geometry">
            <Array as="points">
              <mxPoint x="623.5" y="315" />
            </Array>
          </mxGeometry>
        </mxCell>
        <mxCell id="XTsITJuGgq2ORjFpMyS3-8" value="Событие в расписании" style="rounded=0;whiteSpace=wrap;html=1;" parent="1" vertex="1">
          <mxGeometry x="563.5" width="120" height="60" as="geometry" />
        </mxCell>
        <mxCell id="XTsITJuGgq2ORjFpMyS3-9" value="имя" style="ellipse;whiteSpace=wrap;html=1;align=center;" parent="1" vertex="1">
          <mxGeometry x="440" y="470" width="110" height="50" as="geometry" />
        </mxCell>
        <mxCell id="XTsITJuGgq2ORjFpMyS3-11" value="Номер телефона" style="ellipse;whiteSpace=wrap;html=1;align=center;" parent="1" vertex="1">
          <mxGeometry x="440" y="540" width="110" height="50" as="geometry" />
        </mxCell>
        <mxCell id="XTsITJuGgq2ORjFpMyS3-13" value="" style="edgeStyle=entityRelationEdgeStyle;fontSize=12;html=1;endArrow=ERoneToMany;rounded=0;entryX=0;entryY=0.5;entryDx=0;entryDy=0;exitX=1;exitY=0.5;exitDx=0;exitDy=0;" parent="1" source="XTsITJuGgq2ORjFpMyS3-1" target="XTsITJuGgq2ORjFpMyS3-8" edge="1">
          <mxGeometry width="100" height="100" relative="1" as="geometry">
            <mxPoint x="360" y="380" as="sourcePoint" />
            <mxPoint x="460" y="280" as="targetPoint" />
          </mxGeometry>
        </mxCell>
        <mxCell id="XTsITJuGgq2ORjFpMyS3-12" value="Имеет" style="shape=rhombus;perimeter=rhombusPerimeter;whiteSpace=wrap;html=1;align=center;" parent="1" vertex="1">
          <mxGeometry x="470" y="145" width="100" height="50" as="geometry" />
        </mxCell>
        <mxCell id="h30-m_ZWvxQn7n2_iYUi-9" style="edgeStyle=orthogonalEdgeStyle;rounded=0;orthogonalLoop=1;jettySize=auto;html=1;endArrow=none;startFill=0;" edge="1" parent="1" source="XTsITJuGgq2ORjFpMyS3-14" target="XTsITJuGgq2ORjFpMyS3-57">
          <mxGeometry relative="1" as="geometry">
            <Array as="points">
              <mxPoint x="720" y="625" />
            </Array>
          </mxGeometry>
        </mxCell>
        <mxCell id="h30-m_ZWvxQn7n2_iYUi-11" style="edgeStyle=orthogonalEdgeStyle;rounded=0;orthogonalLoop=1;jettySize=auto;html=1;endArrow=none;startFill=0;" edge="1" parent="1" source="XTsITJuGgq2ORjFpMyS3-14" target="XTsITJuGgq2ORjFpMyS3-59">
          <mxGeometry relative="1" as="geometry">
            <Array as="points">
              <mxPoint x="720" y="690" />
            </Array>
          </mxGeometry>
        </mxCell>
        <mxCell id="XTsITJuGgq2ORjFpMyS3-14" value="Сообщение" style="whiteSpace=wrap;html=1;align=center;" parent="1" vertex="1">
          <mxGeometry x="660" y="490" width="120" height="60" as="geometry" />
        </mxCell>
        <mxCell id="h30-m_ZWvxQn7n2_iYUi-33" style="edgeStyle=orthogonalEdgeStyle;rounded=0;orthogonalLoop=1;jettySize=auto;html=1;endArrow=none;startFill=0;" edge="1" parent="1" source="XTsITJuGgq2ORjFpMyS3-19" target="XTsITJuGgq2ORjFpMyS3-28">
          <mxGeometry relative="1" as="geometry">
            <Array as="points">
              <mxPoint x="200" y="725" />
            </Array>
          </mxGeometry>
        </mxCell>
        <mxCell id="XTsITJuGgq2ORjFpMyS3-19" value="Настройки" style="whiteSpace=wrap;html=1;align=center;" parent="1" vertex="1">
          <mxGeometry x="140" y="600" width="120" height="60" as="geometry" />
        </mxCell>
        <mxCell id="XTsITJuGgq2ORjFpMyS3-22" value="" style="edgeStyle=entityRelationEdgeStyle;fontSize=12;html=1;endArrow=ERmandOne;startArrow=ERmandOne;rounded=0;exitX=1;exitY=0.5;exitDx=0;exitDy=0;entryX=0;entryY=0.5;entryDx=0;entryDy=0;" parent="1" source="XTsITJuGgq2ORjFpMyS3-19" target="XTsITJuGgq2ORjFpMyS3-1" edge="1">
          <mxGeometry width="100" height="100" relative="1" as="geometry">
            <mxPoint x="380" y="450" as="sourcePoint" />
            <mxPoint x="480" y="350" as="targetPoint" />
            <Array as="points">
              <mxPoint x="200" y="480" />
            </Array>
          </mxGeometry>
        </mxCell>
        <mxCell id="XTsITJuGgq2ORjFpMyS3-20" value="Установил" style="shape=rhombus;perimeter=rhombusPerimeter;whiteSpace=wrap;html=1;align=center;" parent="1" vertex="1">
          <mxGeometry x="260" y="470" width="100" height="50" as="geometry" />
        </mxCell>
        <mxCell id="h30-m_ZWvxQn7n2_iYUi-16" style="edgeStyle=orthogonalEdgeStyle;rounded=0;orthogonalLoop=1;jettySize=auto;html=1;entryX=1;entryY=0.5;entryDx=0;entryDy=0;endArrow=none;startFill=0;" edge="1" parent="1" source="XTsITJuGgq2ORjFpMyS3-23" target="XTsITJuGgq2ORjFpMyS3-34">
          <mxGeometry relative="1" as="geometry" />
        </mxCell>
        <mxCell id="h30-m_ZWvxQn7n2_iYUi-17" style="edgeStyle=orthogonalEdgeStyle;rounded=0;orthogonalLoop=1;jettySize=auto;html=1;entryX=1;entryY=0.5;entryDx=0;entryDy=0;endArrow=none;startFill=0;" edge="1" parent="1" source="XTsITJuGgq2ORjFpMyS3-23" target="XTsITJuGgq2ORjFpMyS3-38">
          <mxGeometry relative="1" as="geometry" />
        </mxCell>
        <mxCell id="XTsITJuGgq2ORjFpMyS3-23" value="Привычка" style="rounded=0;whiteSpace=wrap;html=1;" parent="1" vertex="1">
          <mxGeometry x="60" width="120" height="60" as="geometry" />
        </mxCell>
        <mxCell id="XTsITJuGgq2ORjFpMyS3-24" value="" style="edgeStyle=entityRelationEdgeStyle;fontSize=12;html=1;endArrow=ERoneToMany;rounded=0;exitX=0;exitY=0.5;exitDx=0;exitDy=0;entryX=1;entryY=0.75;entryDx=0;entryDy=0;" parent="1" source="XTsITJuGgq2ORjFpMyS3-1" target="XTsITJuGgq2ORjFpMyS3-23" edge="1">
          <mxGeometry width="100" height="100" relative="1" as="geometry">
            <mxPoint x="200" y="380" as="sourcePoint" />
            <mxPoint x="410" y="270" as="targetPoint" />
          </mxGeometry>
        </mxCell>
        <mxCell id="XTsITJuGgq2ORjFpMyS3-27" value="Хэш пароля" style="ellipse;whiteSpace=wrap;html=1;align=center;" parent="1" vertex="1">
          <mxGeometry x="440" y="400" width="110" height="50" as="geometry" />
        </mxCell>
        <mxCell id="XTsITJuGgq2ORjFpMyS3-28" value="Включены ли уведомления" style="ellipse;whiteSpace=wrap;html=1;align=center;" parent="1" vertex="1">
          <mxGeometry x="230" y="700" width="110" height="50" as="geometry" />
        </mxCell>
        <mxCell id="XTsITJuGgq2ORjFpMyS3-31" value="Запланировал" style="shape=rhombus;perimeter=rhombusPerimeter;whiteSpace=wrap;html=1;align=center;" parent="1" vertex="1">
          <mxGeometry x="220" y="160" width="100" height="50" as="geometry" />
        </mxCell>
        <mxCell id="XTsITJuGgq2ORjFpMyS3-34" value="Название" style="ellipse;whiteSpace=wrap;html=1;align=center;" parent="1" vertex="1">
          <mxGeometry x="-10" y="95" width="110" height="50" as="geometry" />
        </mxCell>
        <mxCell id="XTsITJuGgq2ORjFpMyS3-35" value="День недели" style="ellipse;whiteSpace=wrap;html=1;align=center;" parent="1" vertex="1">
          <mxGeometry x="-210" y="-57.5" width="110" height="50" as="geometry" />
        </mxCell>
        <mxCell id="XTsITJuGgq2ORjFpMyS3-38" value="Затрачиваемое время" style="ellipse;whiteSpace=wrap;html=1;align=center;" parent="1" vertex="1">
          <mxGeometry x="-10" y="170" width="110" height="50" as="geometry" />
        </mxCell>
        <mxCell id="XTsITJuGgq2ORjFpMyS3-49" value="Название" style="ellipse;whiteSpace=wrap;html=1;align=center;" parent="1" vertex="1">
          <mxGeometry x="663.5" y="290" width="110" height="50" as="geometry" />
        </mxCell>
        <mxCell id="XTsITJuGgq2ORjFpMyS3-50" value="День недели" style="ellipse;whiteSpace=wrap;html=1;align=center;" parent="1" vertex="1">
          <mxGeometry x="663.5" y="220" width="110" height="50" as="geometry" />
        </mxCell>
        <mxCell id="XTsITJuGgq2ORjFpMyS3-57" value="Текст" style="ellipse;whiteSpace=wrap;html=1;align=center;" parent="1" vertex="1">
          <mxGeometry x="580" y="600" width="110" height="50" as="geometry" />
        </mxCell>
        <mxCell id="XTsITJuGgq2ORjFpMyS3-59" value="Время отправки" style="ellipse;whiteSpace=wrap;html=1;align=center;" parent="1" vertex="1">
          <mxGeometry x="580" y="660" width="110" height="50" as="geometry" />
        </mxCell>
        <mxCell id="h30-m_ZWvxQn7n2_iYUi-18" style="edgeStyle=orthogonalEdgeStyle;rounded=0;orthogonalLoop=1;jettySize=auto;html=1;endArrow=none;startFill=0;" edge="1" parent="1" source="XTsITJuGgq2ORjFpMyS3-61" target="XTsITJuGgq2ORjFpMyS3-65">
          <mxGeometry relative="1" as="geometry">
            <Array as="points">
              <mxPoint x="-75" y="-177.5" />
            </Array>
          </mxGeometry>
        </mxCell>
        <mxCell id="h30-m_ZWvxQn7n2_iYUi-19" style="edgeStyle=orthogonalEdgeStyle;rounded=0;orthogonalLoop=1;jettySize=auto;html=1;endArrow=none;startFill=0;" edge="1" parent="1" source="XTsITJuGgq2ORjFpMyS3-61" target="XTsITJuGgq2ORjFpMyS3-67">
          <mxGeometry relative="1" as="geometry">
            <Array as="points">
              <mxPoint x="-75" y="-102.5" />
            </Array>
          </mxGeometry>
        </mxCell>
        <mxCell id="h30-m_ZWvxQn7n2_iYUi-20" style="edgeStyle=orthogonalEdgeStyle;rounded=0;orthogonalLoop=1;jettySize=auto;html=1;endArrow=none;startFill=0;" edge="1" parent="1" source="XTsITJuGgq2ORjFpMyS3-61" target="XTsITJuGgq2ORjFpMyS3-35">
          <mxGeometry relative="1" as="geometry">
            <Array as="points">
              <mxPoint x="-75" y="-37.5" />
            </Array>
          </mxGeometry>
        </mxCell>
        <mxCell id="XTsITJuGgq2ORjFpMyS3-61" value="Фактические временные промежутки выполнения" style="rounded=0;whiteSpace=wrap;html=1;" parent="1" vertex="1">
          <mxGeometry x="-135" y="-312.5" width="120" height="60" as="geometry" />
        </mxCell>
        <mxCell id="XTsITJuGgq2ORjFpMyS3-64" value="" style="edgeStyle=entityRelationEdgeStyle;fontSize=12;html=1;endArrow=ERoneToMany;rounded=0;exitX=0;exitY=0.5;exitDx=0;exitDy=0;" parent="1" source="XTsITJuGgq2ORjFpMyS3-23" target="XTsITJuGgq2ORjFpMyS3-61" edge="1">
          <mxGeometry width="100" height="100" relative="1" as="geometry">
            <mxPoint x="150" y="240" as="sourcePoint" />
            <mxPoint x="50" y="340" as="targetPoint" />
            <Array as="points">
              <mxPoint x="40" y="30" />
            </Array>
          </mxGeometry>
        </mxCell>
        <mxCell id="XTsITJuGgq2ORjFpMyS3-65" value="Начало" style="ellipse;whiteSpace=wrap;html=1;align=center;" parent="1" vertex="1">
          <mxGeometry x="-210" y="-202.5" width="110" height="50" as="geometry" />
        </mxCell>
        <mxCell id="XTsITJuGgq2ORjFpMyS3-67" value="Конец" style="ellipse;whiteSpace=wrap;html=1;align=center;" parent="1" vertex="1">
          <mxGeometry x="-210" y="-127.5" width="110" height="50" as="geometry" />
        </mxCell>
        <mxCell id="mqxe7t2kT96MH7PXwpXo-1" value="Запрещенное время посылки уведомлений" style="rounded=0;whiteSpace=wrap;html=1;" parent="1" vertex="1">
          <mxGeometry x="-60" y="280" width="120" height="60" as="geometry" />
        </mxCell>
        <mxCell id="mqxe7t2kT96MH7PXwpXo-7" value="" style="edgeStyle=entityRelationEdgeStyle;fontSize=12;html=1;endArrow=ERoneToMany;rounded=0;entryX=1;entryY=0.5;entryDx=0;entryDy=0;exitX=0;exitY=0.5;exitDx=0;exitDy=0;" parent="1" source="XTsITJuGgq2ORjFpMyS3-19" target="mqxe7t2kT96MH7PXwpXo-1" edge="1">
          <mxGeometry width="100" height="100" relative="1" as="geometry">
            <mxPoint x="90" y="610" as="sourcePoint" />
            <mxPoint x="60" y="520" as="targetPoint" />
          </mxGeometry>
        </mxCell>
        <mxCell id="mqxe7t2kT96MH7PXwpXo-9" value="Начало" style="ellipse;whiteSpace=wrap;html=1;align=center;" parent="1" vertex="1">
          <mxGeometry x="663.5" y="80" width="110" height="50" as="geometry" />
        </mxCell>
        <mxCell id="mqxe7t2kT96MH7PXwpXo-11" value="Конец" style="ellipse;whiteSpace=wrap;html=1;align=center;" parent="1" vertex="1">
          <mxGeometry x="663.5" y="150" width="110" height="50" as="geometry" />
        </mxCell>
        <mxCell id="mqxe7t2kT96MH7PXwpXo-14" value="Содержат" style="shape=rhombus;perimeter=rhombusPerimeter;whiteSpace=wrap;html=1;align=center;" parent="1" vertex="1">
          <mxGeometry x="50" y="439.5" width="100" height="50" as="geometry" />
        </mxCell>
        <mxCell id="mqxe7t2kT96MH7PXwpXo-15" value="Содержит" style="shape=rhombus;perimeter=rhombusPerimeter;whiteSpace=wrap;html=1;align=center;" parent="1" vertex="1">
          <mxGeometry x="-30" y="-152.5" width="100" height="50" as="geometry" />
        </mxCell>
        <mxCell id="h30-m_ZWvxQn7n2_iYUi-13" style="edgeStyle=orthogonalEdgeStyle;rounded=0;orthogonalLoop=1;jettySize=auto;html=1;entryX=0;entryY=0.5;entryDx=0;entryDy=0;endArrow=none;startFill=0;" edge="1" parent="1" source="mqxe7t2kT96MH7PXwpXo-19" target="mqxe7t2kT96MH7PXwpXo-20">
          <mxGeometry relative="1" as="geometry" />
        </mxCell>
        <mxCell id="h30-m_ZWvxQn7n2_iYUi-14" style="edgeStyle=orthogonalEdgeStyle;rounded=0;orthogonalLoop=1;jettySize=auto;html=1;endArrow=none;startFill=0;" edge="1" parent="1" source="mqxe7t2kT96MH7PXwpXo-19" target="mqxe7t2kT96MH7PXwpXo-22">
          <mxGeometry relative="1" as="geometry">
            <Array as="points">
              <mxPoint x="370" y="-85" />
            </Array>
          </mxGeometry>
        </mxCell>
        <mxCell id="h30-m_ZWvxQn7n2_iYUi-28" style="edgeStyle=orthogonalEdgeStyle;rounded=0;orthogonalLoop=1;jettySize=auto;html=1;endArrow=none;startFill=0;" edge="1" parent="1" source="mqxe7t2kT96MH7PXwpXo-19" target="h30-m_ZWvxQn7n2_iYUi-27">
          <mxGeometry relative="1" as="geometry">
            <Array as="points">
              <mxPoint x="370" y="-15" />
            </Array>
          </mxGeometry>
        </mxCell>
        <mxCell id="mqxe7t2kT96MH7PXwpXo-19" value="Предпочтительное или жесткое допустимое время выполнения" style="rounded=0;whiteSpace=wrap;html=1;flipH=1;" parent="1" vertex="1">
          <mxGeometry x="310" y="-280" width="120" height="60" as="geometry" />
        </mxCell>
        <mxCell id="mqxe7t2kT96MH7PXwpXo-20" value="Начало" style="ellipse;whiteSpace=wrap;html=1;align=center;flipH=1;" parent="1" vertex="1">
          <mxGeometry x="400" y="-185" width="110" height="50" as="geometry" />
        </mxCell>
        <mxCell id="mqxe7t2kT96MH7PXwpXo-22" value="Конец" style="ellipse;whiteSpace=wrap;html=1;align=center;flipH=1;" parent="1" vertex="1">
          <mxGeometry x="400" y="-110" width="110" height="50" as="geometry" />
        </mxCell>
        <mxCell id="mqxe7t2kT96MH7PXwpXo-24" value="" style="edgeStyle=entityRelationEdgeStyle;fontSize=12;html=1;endArrow=ERoneToMany;rounded=0;entryX=0;entryY=0.5;entryDx=0;entryDy=0;" parent="1" source="XTsITJuGgq2ORjFpMyS3-23" target="mqxe7t2kT96MH7PXwpXo-19" edge="1">
          <mxGeometry width="100" height="100" relative="1" as="geometry">
            <mxPoint x="250" as="sourcePoint" />
            <mxPoint x="220" y="-70" as="targetPoint" />
          </mxGeometry>
        </mxCell>
        <mxCell id="NTwswUcXt1kOZ_Q8dFBG-1" value="" style="edgeStyle=entityRelationEdgeStyle;fontSize=12;html=1;endArrow=ERmany;startArrow=ERmany;rounded=0;exitX=1;exitY=0.65;exitDx=0;exitDy=0;exitPerimeter=0;" parent="1" source="XTsITJuGgq2ORjFpMyS3-1" target="XTsITJuGgq2ORjFpMyS3-14" edge="1">
          <mxGeometry width="100" height="100" relative="1" as="geometry">
            <mxPoint x="500" y="240" as="sourcePoint" />
            <mxPoint x="600" y="140" as="targetPoint" />
          </mxGeometry>
        </mxCell>
        <mxCell id="XTsITJuGgq2ORjFpMyS3-16" value="Отправлено" style="shape=rhombus;perimeter=rhombusPerimeter;whiteSpace=wrap;html=1;align=center;" parent="1" vertex="1">
          <mxGeometry x="540" y="430" width="100" height="50" as="geometry" />
        </mxCell>
        <mxCell id="h30-m_ZWvxQn7n2_iYUi-22" style="edgeStyle=orthogonalEdgeStyle;rounded=0;orthogonalLoop=1;jettySize=auto;html=1;endArrow=none;startFill=0;" edge="1" parent="1" target="h30-m_ZWvxQn7n2_iYUi-25">
          <mxGeometry relative="1" as="geometry">
            <mxPoint y="337.5" as="sourcePoint" />
            <Array as="points">
              <mxPoint y="412.5" />
            </Array>
          </mxGeometry>
        </mxCell>
        <mxCell id="h30-m_ZWvxQn7n2_iYUi-23" style="edgeStyle=orthogonalEdgeStyle;rounded=0;orthogonalLoop=1;jettySize=auto;html=1;endArrow=none;startFill=0;" edge="1" parent="1" target="h30-m_ZWvxQn7n2_iYUi-26">
          <mxGeometry relative="1" as="geometry">
            <mxPoint y="337.5" as="sourcePoint" />
            <Array as="points">
              <mxPoint y="487.5" />
            </Array>
          </mxGeometry>
        </mxCell>
        <mxCell id="h30-m_ZWvxQn7n2_iYUi-25" value="Начало" style="ellipse;whiteSpace=wrap;html=1;align=center;" vertex="1" parent="1">
          <mxGeometry x="-150" y="389.5" width="110" height="50" as="geometry" />
        </mxCell>
        <mxCell id="h30-m_ZWvxQn7n2_iYUi-26" value="Конец" style="ellipse;whiteSpace=wrap;html=1;align=center;" vertex="1" parent="1">
          <mxGeometry x="-150" y="460" width="110" height="50" as="geometry" />
        </mxCell>
        <mxCell id="h30-m_ZWvxQn7n2_iYUi-27" value="День недели" style="ellipse;whiteSpace=wrap;html=1;align=center;" vertex="1" parent="1">
          <mxGeometry x="400" y="-40" width="110" height="50" as="geometry" />
        </mxCell>
      </root>
    </mxGraphModel>
  </diagram>
</mxfile>
